<svg xmlns="http://www.w3.org/2000/svg" width="26" height="25" viewBox="0 0 26 25">
  <defs>
    <style>
      .cls-1 {
        fill-rule: evenodd;
      }
    </style>
  </defs>
  <path id="Фигура_1" data-name="Фигура 1" class="cls-1" d="M26,8.326H23.075L17,2.094a1.725,1.725,0,0,0,.06-0.427,1.626,1.626,0,1,0-3.25,0,1.647,1.647,0,0,0,1.625,1.667,1.533,1.533,0,0,0,.416-0.063l4.924,5.054H5.233l4.922-5.051a1.537,1.537,0,0,0,.408.06,1.647,1.647,0,0,0,1.625-1.667,1.626,1.626,0,1,0-3.25,0A1.705,1.705,0,0,0,9,2.1L2.935,8.326H0v5H1.573l1.275,8.588,0.008,0.041A3.776,3.776,0,0,0,6.374,25H19.617a3.789,3.789,0,0,0,3.525-3.084l1.283-8.588H26v-5ZM1.625,9.993h22.75v1.667H1.625V9.993ZM21.541,21.637a2.139,2.139,0,0,1-1.923,1.695H6.374A2.151,2.151,0,0,1,4.452,21.64L3.459,15H7.312v5.836a0.813,0.813,0,1,0,1.625,0V15h3.25v5.836a0.813,0.813,0,1,0,1.625,0V15h3.25v5.836a0.813,0.813,0,1,0,1.625,0V15h3.845Z"/>
</svg>
